<?xml version="1.0" encoding="UTF-8" standalone="no"?>
<!DOCTYPE svg PUBLIC "-//W3C//DTD SVG 1.1//EN"
 "http://www.w3.org/Graphics/SVG/1.1/DTD/svg11.dtd">
<!-- Generated by graphviz version 2.47.0 (20210316.0004)
 -->
<!-- Title: dbml Pages: 1 -->
<svg width="1561pt" height="1696pt"
 viewBox="0.00 0.00 1560.68 1696.22" xmlns="http://www.w3.org/2000/svg" xmlns:xlink="http://www.w3.org/1999/xlink">
<g id="graph0" class="graph" transform="scale(1 1) rotate(0) translate(4 1692.22)">
<title>dbml</title>
<!-- ref_rating -->
<g id="ref_rating" class="node">
<title>ref_rating</title>
<ellipse fill="none" stroke="black" stroke-width="0" cx="1351.16" cy="-1230.11" rx="201.55" ry="130.22"/>
<polygon fill="#1d71b8" stroke="transparent" points="1211.16,-1260.11 1211.16,-1320.11 1492.16,-1320.11 1492.16,-1260.11 1211.16,-1260.11"/>
<polygon fill="none" stroke="#29235c" points="1211.16,-1260.11 1211.16,-1320.11 1492.16,-1320.11 1492.16,-1260.11 1211.16,-1260.11"/>
<text text-anchor="start" x="1221.84" y="-1281.31" font-family="Helvetica,sans-Serif" font-weight="bold" font-size="32.00" fill="#ffffff"> &#160;&#160;&#160;&#160;&#160;&#160;ref_rating &#160;&#160;&#160;&#160;&#160;&#160;</text>
<polygon fill="#e7e2dd" stroke="transparent" points="1211.16,-1200.11 1211.16,-1260.11 1492.16,-1260.11 1492.16,-1200.11 1211.16,-1200.11"/>
<polygon fill="none" stroke="#29235c" points="1211.16,-1200.11 1211.16,-1260.11 1492.16,-1260.11 1492.16,-1200.11 1211.16,-1200.11"/>
<text text-anchor="start" x="1222.16" y="-1221.31" font-family="Helvetica,sans-Serif" font-weight="bold" font-size="32.00" fill="#29235c">id</text>
<text text-anchor="start" x="1247.05" y="-1221.31" font-family="Helvetica,sans-Serif" font-size="32.00" fill="#29235c"> &#160;&#160;&#160;</text>
<text text-anchor="start" x="1404.7" y="-1221.31" font-family="Helvetica,sans-Serif" font-style="italic" font-size="32.00" fill="#29235c">bigint</text>
<polygon fill="#e7e2dd" stroke="transparent" points="1211.16,-1140.11 1211.16,-1200.11 1492.16,-1200.11 1492.16,-1140.11 1211.16,-1140.11"/>
<polygon fill="none" stroke="#29235c" points="1211.16,-1140.11 1211.16,-1200.11 1492.16,-1200.11 1492.16,-1140.11 1211.16,-1140.11"/>
<text text-anchor="start" x="1222.16" y="-1160.31" font-family="Helvetica,sans-Serif" font-size="32.00" fill="#29235c">code &#160;&#160;&#160;</text>
<text text-anchor="start" x="1335.39" y="-1161.31" font-family="Helvetica,sans-Serif" font-style="italic" font-size="32.00" fill="#29235c">varchar</text>
<text text-anchor="start" x="1442.06" y="-1161.31" font-family="Helvetica,sans-Serif" font-size="32.00" fill="#29235c"> </text>
<text text-anchor="start" x="1450.96" y="-1161.31" font-family="Helvetica,sans-Serif" font-weight="bold" font-size="32.00" fill="#29235c">(!)</text>
<polygon fill="none" stroke="#29235c" stroke-width="2" points="1209.66,-1139.11 1209.66,-1321.11 1492.66,-1321.11 1492.66,-1139.11 1209.66,-1139.11"/>
</g>
<!-- ref_genre -->
<g id="ref_genre" class="node">
<title>ref_genre</title>
<ellipse fill="none" stroke="black" stroke-width="0" cx="797.55" cy="-1558.11" rx="202.88" ry="130.22"/>
<polygon fill="#1d71b8" stroke="transparent" points="656.55,-1588.11 656.55,-1648.11 939.55,-1648.11 939.55,-1588.11 656.55,-1588.11"/>
<polygon fill="none" stroke="#29235c" points="656.55,-1588.11 656.55,-1648.11 939.55,-1648.11 939.55,-1588.11 656.55,-1588.11"/>
<text text-anchor="start" x="667.34" y="-1609.31" font-family="Helvetica,sans-Serif" font-weight="bold" font-size="32.00" fill="#ffffff"> &#160;&#160;&#160;&#160;&#160;&#160;ref_genre &#160;&#160;&#160;&#160;&#160;&#160;</text>
<polygon fill="#e7e2dd" stroke="transparent" points="656.55,-1528.11 656.55,-1588.11 939.55,-1588.11 939.55,-1528.11 656.55,-1528.11"/>
<polygon fill="none" stroke="#29235c" points="656.55,-1528.11 656.55,-1588.11 939.55,-1588.11 939.55,-1528.11 656.55,-1528.11"/>
<text text-anchor="start" x="667.55" y="-1549.31" font-family="Helvetica,sans-Serif" font-weight="bold" font-size="32.00" fill="#29235c">id</text>
<text text-anchor="start" x="692.44" y="-1549.31" font-family="Helvetica,sans-Serif" font-size="32.00" fill="#29235c"> &#160;&#160;&#160;</text>
<text text-anchor="start" x="852.09" y="-1549.31" font-family="Helvetica,sans-Serif" font-style="italic" font-size="32.00" fill="#29235c">bigint</text>
<polygon fill="#e7e2dd" stroke="transparent" points="656.55,-1468.11 656.55,-1528.11 939.55,-1528.11 939.55,-1468.11 656.55,-1468.11"/>
<polygon fill="none" stroke="#29235c" points="656.55,-1468.11 656.55,-1528.11 939.55,-1528.11 939.55,-1468.11 656.55,-1468.11"/>
<text text-anchor="start" x="667.55" y="-1488.31" font-family="Helvetica,sans-Serif" font-size="32.00" fill="#29235c">name &#160;&#160;&#160;</text>
<text text-anchor="start" x="783.17" y="-1489.31" font-family="Helvetica,sans-Serif" font-style="italic" font-size="32.00" fill="#29235c">varchar</text>
<text text-anchor="start" x="889.84" y="-1489.31" font-family="Helvetica,sans-Serif" font-size="32.00" fill="#29235c"> </text>
<text text-anchor="start" x="898.74" y="-1489.31" font-family="Helvetica,sans-Serif" font-weight="bold" font-size="32.00" fill="#29235c">(!)</text>
<polygon fill="none" stroke="#29235c" stroke-width="2" points="655.05,-1467.11 655.05,-1649.11 940.05,-1649.11 940.05,-1467.11 655.05,-1467.11"/>
</g>
<!-- ref_friendship_status -->
<g id="ref_friendship_status" class="node">
<title>ref_friendship_status</title>
<ellipse fill="none" stroke="black" stroke-width="0" cx="797.55" cy="-130.11" rx="316.15" ry="130.22"/>
<polygon fill="#1d71b8" stroke="transparent" points="576.55,-160.11 576.55,-220.11 1019.55,-220.11 1019.55,-160.11 576.55,-160.11"/>
<polygon fill="none" stroke="#29235c" points="576.55,-160.11 576.55,-220.11 1019.55,-220.11 1019.55,-160.11 576.55,-160.11"/>
<text text-anchor="start" x="587.32" y="-181.31" font-family="Helvetica,sans-Serif" font-weight="bold" font-size="32.00" fill="#ffffff"> &#160;&#160;&#160;&#160;&#160;&#160;ref_friendship_status &#160;&#160;&#160;&#160;&#160;&#160;</text>
<polygon fill="#e7e2dd" stroke="transparent" points="576.55,-100.11 576.55,-160.11 1019.55,-160.11 1019.55,-100.11 576.55,-100.11"/>
<polygon fill="none" stroke="#29235c" points="576.55,-100.11 576.55,-160.11 1019.55,-160.11 1019.55,-100.11 576.55,-100.11"/>
<text text-anchor="start" x="587.55" y="-121.31" font-family="Helvetica,sans-Serif" font-weight="bold" font-size="32.00" fill="#29235c">id</text>
<text text-anchor="start" x="612.44" y="-121.31" font-family="Helvetica,sans-Serif" font-size="32.00" fill="#29235c"> &#160;&#160;&#160;</text>
<text text-anchor="start" x="932.09" y="-121.31" font-family="Helvetica,sans-Serif" font-style="italic" font-size="32.00" fill="#29235c">bigint</text>
<polygon fill="#e7e2dd" stroke="transparent" points="576.55,-40.11 576.55,-100.11 1019.55,-100.11 1019.55,-40.11 576.55,-40.11"/>
<polygon fill="none" stroke="#29235c" points="576.55,-40.11 576.55,-100.11 1019.55,-100.11 1019.55,-40.11 576.55,-40.11"/>
<text text-anchor="start" x="587.55" y="-60.31" font-family="Helvetica,sans-Serif" font-size="32.00" fill="#29235c">status &#160;&#160;&#160;</text>
<text text-anchor="start" x="862.79" y="-61.31" font-family="Helvetica,sans-Serif" font-style="italic" font-size="32.00" fill="#29235c">varchar</text>
<text text-anchor="start" x="969.46" y="-61.31" font-family="Helvetica,sans-Serif" font-size="32.00" fill="#29235c"> </text>
<text text-anchor="start" x="978.36" y="-61.31" font-family="Helvetica,sans-Serif" font-weight="bold" font-size="32.00" fill="#29235c">(!)</text>
<polygon fill="none" stroke="#29235c" stroke-width="2" points="575.05,-39.11 575.05,-221.11 1020.05,-221.11 1020.05,-39.11 575.05,-39.11"/>
</g>
<!-- users -->
<g id="users" class="node">
<title>users</title>
<ellipse fill="none" stroke="black" stroke-width="0" cx="797.55" cy="-535.11" rx="200.22" ry="257.27"/>
<polygon fill="#1d71b8" stroke="transparent" points="658.55,-655.11 658.55,-715.11 937.55,-715.11 937.55,-655.11 658.55,-655.11"/>
<polygon fill="none" stroke="#29235c" points="658.55,-655.11 658.55,-715.11 937.55,-715.11 937.55,-655.11 658.55,-655.11"/>
<text text-anchor="start" x="696.69" y="-676.31" font-family="Helvetica,sans-Serif" font-weight="bold" font-size="32.00" fill="#ffffff"> &#160;&#160;&#160;&#160;&#160;&#160;users &#160;&#160;&#160;&#160;&#160;&#160;</text>
<polygon fill="#e7e2dd" stroke="transparent" points="658.55,-595.11 658.55,-655.11 937.55,-655.11 937.55,-595.11 658.55,-595.11"/>
<polygon fill="none" stroke="#29235c" points="658.55,-595.11 658.55,-655.11 937.55,-655.11 937.55,-595.11 658.55,-595.11"/>
<text text-anchor="start" x="669.55" y="-616.31" font-family="Helvetica,sans-Serif" font-weight="bold" font-size="32.00" fill="#29235c">id</text>
<text text-anchor="start" x="694.44" y="-616.31" font-family="Helvetica,sans-Serif" font-size="32.00" fill="#29235c"> &#160;&#160;&#160;</text>
<text text-anchor="start" x="850.09" y="-616.31" font-family="Helvetica,sans-Serif" font-style="italic" font-size="32.00" fill="#29235c">bigint</text>
<polygon fill="#e7e2dd" stroke="transparent" points="658.55,-535.11 658.55,-595.11 937.55,-595.11 937.55,-535.11 658.55,-535.11"/>
<polygon fill="none" stroke="#29235c" points="658.55,-535.11 658.55,-595.11 937.55,-595.11 937.55,-535.11 658.55,-535.11"/>
<text text-anchor="start" x="669.55" y="-555.31" font-family="Helvetica,sans-Serif" font-size="32.00" fill="#29235c">login &#160;&#160;&#160;</text>
<text text-anchor="start" x="780.79" y="-556.31" font-family="Helvetica,sans-Serif" font-style="italic" font-size="32.00" fill="#29235c">varchar</text>
<text text-anchor="start" x="887.46" y="-556.31" font-family="Helvetica,sans-Serif" font-size="32.00" fill="#29235c"> </text>
<text text-anchor="start" x="896.36" y="-556.31" font-family="Helvetica,sans-Serif" font-weight="bold" font-size="32.00" fill="#29235c">(!)</text>
<polygon fill="#e7e2dd" stroke="transparent" points="658.55,-475.11 658.55,-535.11 937.55,-535.11 937.55,-475.11 658.55,-475.11"/>
<polygon fill="none" stroke="#29235c" points="658.55,-475.11 658.55,-535.11 937.55,-535.11 937.55,-475.11 658.55,-475.11"/>
<text text-anchor="start" x="669.55" y="-495.31" font-family="Helvetica,sans-Serif" font-size="32.00" fill="#29235c">email &#160;&#160;&#160;</text>
<text text-anchor="start" x="781.17" y="-496.31" font-family="Helvetica,sans-Serif" font-style="italic" font-size="32.00" fill="#29235c">varchar</text>
<text text-anchor="start" x="887.84" y="-496.31" font-family="Helvetica,sans-Serif" font-size="32.00" fill="#29235c"> </text>
<text text-anchor="start" x="896.74" y="-496.31" font-family="Helvetica,sans-Serif" font-weight="bold" font-size="32.00" fill="#29235c">(!)</text>
<polygon fill="#e7e2dd" stroke="transparent" points="658.55,-415.11 658.55,-475.11 937.55,-475.11 937.55,-415.11 658.55,-415.11"/>
<polygon fill="none" stroke="#29235c" points="658.55,-415.11 658.55,-475.11 937.55,-475.11 937.55,-415.11 658.55,-415.11"/>
<text text-anchor="start" x="669.55" y="-435.31" font-family="Helvetica,sans-Serif" font-size="32.00" fill="#29235c">name &#160;&#160;&#160;</text>
<text text-anchor="start" x="819.88" y="-436.31" font-family="Helvetica,sans-Serif" font-style="italic" font-size="32.00" fill="#29235c">varchar</text>
<polygon fill="#e7e2dd" stroke="transparent" points="658.55,-355.11 658.55,-415.11 937.55,-415.11 937.55,-355.11 658.55,-355.11"/>
<polygon fill="none" stroke="#29235c" points="658.55,-355.11 658.55,-415.11 937.55,-415.11 937.55,-355.11 658.55,-355.11"/>
<text text-anchor="start" x="669.55" y="-375.31" font-family="Helvetica,sans-Serif" font-size="32.00" fill="#29235c">birthday &#160;&#160;&#160;</text>
<text text-anchor="start" x="864.29" y="-376.31" font-family="Helvetica,sans-Serif" font-style="italic" font-size="32.00" fill="#29235c">date</text>
<polygon fill="none" stroke="#29235c" stroke-width="2" points="657.05,-354.11 657.05,-716.11 938.05,-716.11 938.05,-354.11 657.05,-354.11"/>
</g>
<!-- films -->
<g id="films" class="node">
<title>films</title>
<ellipse fill="none" stroke="black" stroke-width="0" cx="797.55" cy="-1110.11" rx="280.94" ry="299.63"/>
<polygon fill="#1d71b8" stroke="transparent" points="601.55,-1260.11 601.55,-1320.11 994.55,-1320.11 994.55,-1260.11 601.55,-1260.11"/>
<polygon fill="none" stroke="#29235c" points="601.55,-1260.11 601.55,-1320.11 994.55,-1320.11 994.55,-1260.11 601.55,-1260.11"/>
<text text-anchor="start" x="702.93" y="-1281.31" font-family="Helvetica,sans-Serif" font-weight="bold" font-size="32.00" fill="#ffffff"> &#160;&#160;&#160;&#160;&#160;&#160;films &#160;&#160;&#160;&#160;&#160;&#160;</text>
<polygon fill="#e7e2dd" stroke="transparent" points="601.55,-1200.11 601.55,-1260.11 994.55,-1260.11 994.55,-1200.11 601.55,-1200.11"/>
<polygon fill="none" stroke="#29235c" points="601.55,-1200.11 601.55,-1260.11 994.55,-1260.11 994.55,-1200.11 601.55,-1200.11"/>
<text text-anchor="start" x="612.55" y="-1221.31" font-family="Helvetica,sans-Serif" font-weight="bold" font-size="32.00" fill="#29235c">id</text>
<text text-anchor="start" x="637.44" y="-1221.31" font-family="Helvetica,sans-Serif" font-size="32.00" fill="#29235c"> &#160;&#160;&#160;</text>
<text text-anchor="start" x="907.09" y="-1221.31" font-family="Helvetica,sans-Serif" font-style="italic" font-size="32.00" fill="#29235c">bigint</text>
<polygon fill="#e7e2dd" stroke="transparent" points="601.55,-1140.11 601.55,-1200.11 994.55,-1200.11 994.55,-1140.11 601.55,-1140.11"/>
<polygon fill="none" stroke="#29235c" points="601.55,-1140.11 601.55,-1200.11 994.55,-1200.11 994.55,-1140.11 601.55,-1140.11"/>
<text text-anchor="start" x="612.55" y="-1160.31" font-family="Helvetica,sans-Serif" font-size="32.00" fill="#29235c">name &#160;&#160;&#160;</text>
<text text-anchor="start" x="837.79" y="-1161.31" font-family="Helvetica,sans-Serif" font-style="italic" font-size="32.00" fill="#29235c">varchar</text>
<text text-anchor="start" x="944.46" y="-1161.31" font-family="Helvetica,sans-Serif" font-size="32.00" fill="#29235c"> </text>
<text text-anchor="start" x="953.36" y="-1161.31" font-family="Helvetica,sans-Serif" font-weight="bold" font-size="32.00" fill="#29235c">(!)</text>
<polygon fill="#e7e2dd" stroke="transparent" points="601.55,-1080.11 601.55,-1140.11 994.55,-1140.11 994.55,-1080.11 601.55,-1080.11"/>
<polygon fill="none" stroke="#29235c" points="601.55,-1080.11 601.55,-1140.11 994.55,-1140.11 994.55,-1080.11 601.55,-1080.11"/>
<text text-anchor="start" x="612.42" y="-1100.31" font-family="Helvetica,sans-Serif" font-size="32.00" fill="#29235c">description &#160;&#160;&#160;</text>
<text text-anchor="start" x="802.38" y="-1101.31" font-family="Helvetica,sans-Serif" font-style="italic" font-size="32.00" fill="#29235c">varchar(200)</text>
<polygon fill="#e7e2dd" stroke="transparent" points="601.55,-1020.11 601.55,-1080.11 994.55,-1080.11 994.55,-1020.11 601.55,-1020.11"/>
<polygon fill="none" stroke="#29235c" points="601.55,-1020.11 601.55,-1080.11 994.55,-1080.11 994.55,-1020.11 601.55,-1020.11"/>
<text text-anchor="start" x="612.55" y="-1040.31" font-family="Helvetica,sans-Serif" font-size="32.00" fill="#29235c">release_date &#160;&#160;&#160;</text>
<text text-anchor="start" x="921.29" y="-1041.31" font-family="Helvetica,sans-Serif" font-style="italic" font-size="32.00" fill="#29235c">date</text>
<polygon fill="#e7e2dd" stroke="transparent" points="601.55,-960.11 601.55,-1020.11 994.55,-1020.11 994.55,-960.11 601.55,-960.11"/>
<polygon fill="none" stroke="#29235c" points="601.55,-960.11 601.55,-1020.11 994.55,-1020.11 994.55,-960.11 601.55,-960.11"/>
<text text-anchor="start" x="612.55" y="-980.31" font-family="Helvetica,sans-Serif" font-size="32.00" fill="#29235c">duration &#160;&#160;&#160;</text>
<text text-anchor="start" x="949.77" y="-981.31" font-family="Helvetica,sans-Serif" font-style="italic" font-size="32.00" fill="#29235c">int</text>
<polygon fill="#e7e2dd" stroke="transparent" points="601.55,-900.11 601.55,-960.11 994.55,-960.11 994.55,-900.11 601.55,-900.11"/>
<polygon fill="none" stroke="#29235c" points="601.55,-900.11 601.55,-960.11 994.55,-960.11 994.55,-900.11 601.55,-900.11"/>
<text text-anchor="start" x="612.55" y="-920.31" font-family="Helvetica,sans-Serif" font-size="32.00" fill="#29235c">rating_id &#160;&#160;&#160;</text>
<text text-anchor="start" x="868" y="-921.31" font-family="Helvetica,sans-Serif" font-style="italic" font-size="32.00" fill="#29235c">bigint</text>
<text text-anchor="start" x="944.46" y="-921.31" font-family="Helvetica,sans-Serif" font-size="32.00" fill="#29235c"> </text>
<text text-anchor="start" x="953.36" y="-921.31" font-family="Helvetica,sans-Serif" font-weight="bold" font-size="32.00" fill="#29235c">(!)</text>
<polygon fill="none" stroke="#29235c" stroke-width="2" points="600.05,-899.11 600.05,-1321.11 995.05,-1321.11 995.05,-899.11 600.05,-899.11"/>
</g>
<!-- films&#45;&gt;ref_rating -->
<!-- films&#45;&gt;ref_rating -->
<g id="edge2" class="edge">
<title>films:e&#45;&gt;ref_rating:w</title>
<path fill="none" stroke="#29235c" stroke-width="3" d="M995.55,-930.11C1155.97,-930.11 1050.96,-1217.36 1199.97,-1229.7"/>
<polygon fill="#29235c" stroke="#29235c" stroke-width="3" points="1200.02,-1233.2 1210.16,-1230.11 1200.3,-1226.21 1200.02,-1233.2"/>
<text text-anchor="middle" x="1201.26" y="-1239.71" font-family="Helvetica,sans-Serif" font-size="32.00" fill="#29235c">1</text>
<text text-anchor="middle" x="989.33" y="-939.71" font-family="Helvetica,sans-Serif" font-size="32.00" fill="#29235c">*</text>
</g>
<!-- film_genres -->
<g id="film_genres" class="node">
<title>film_genres</title>
<ellipse fill="none" stroke="black" stroke-width="0" cx="222.74" cy="-1424.11" rx="222.98" ry="172.57"/>
<polygon fill="#1d71b8" stroke="transparent" points="67.74,-1484.11 67.74,-1544.11 378.74,-1544.11 378.74,-1484.11 67.74,-1484.11"/>
<polygon fill="none" stroke="#29235c" points="67.74,-1484.11 67.74,-1544.11 378.74,-1544.11 378.74,-1484.11 67.74,-1484.11"/>
<text text-anchor="start" x="78.32" y="-1505.31" font-family="Helvetica,sans-Serif" font-weight="bold" font-size="32.00" fill="#ffffff"> &#160;&#160;&#160;&#160;&#160;&#160;film_genres &#160;&#160;&#160;&#160;&#160;&#160;</text>
<polygon fill="#e7e2dd" stroke="transparent" points="67.74,-1424.11 67.74,-1484.11 378.74,-1484.11 378.74,-1424.11 67.74,-1424.11"/>
<polygon fill="none" stroke="#29235c" points="67.74,-1424.11 67.74,-1484.11 378.74,-1484.11 378.74,-1424.11 67.74,-1424.11"/>
<text text-anchor="start" x="78.74" y="-1445.31" font-family="Helvetica,sans-Serif" font-weight="bold" font-size="32.00" fill="#29235c">id</text>
<text text-anchor="start" x="103.63" y="-1445.31" font-family="Helvetica,sans-Serif" font-size="32.00" fill="#29235c"> &#160;&#160;&#160;</text>
<text text-anchor="start" x="291.28" y="-1445.31" font-family="Helvetica,sans-Serif" font-style="italic" font-size="32.00" fill="#29235c">bigint</text>
<polygon fill="#e7e2dd" stroke="transparent" points="67.74,-1364.11 67.74,-1424.11 378.74,-1424.11 378.74,-1364.11 67.74,-1364.11"/>
<polygon fill="none" stroke="#29235c" points="67.74,-1364.11 67.74,-1424.11 378.74,-1424.11 378.74,-1364.11 67.74,-1364.11"/>
<text text-anchor="start" x="78.74" y="-1384.31" font-family="Helvetica,sans-Serif" font-size="32.00" fill="#29235c">genre_id &#160;&#160;&#160;</text>
<text text-anchor="start" x="252.19" y="-1385.31" font-family="Helvetica,sans-Serif" font-style="italic" font-size="32.00" fill="#29235c">bigint</text>
<text text-anchor="start" x="328.65" y="-1385.31" font-family="Helvetica,sans-Serif" font-size="32.00" fill="#29235c"> </text>
<text text-anchor="start" x="337.54" y="-1385.31" font-family="Helvetica,sans-Serif" font-weight="bold" font-size="32.00" fill="#29235c">(!)</text>
<polygon fill="#e7e2dd" stroke="transparent" points="67.74,-1304.11 67.74,-1364.11 378.74,-1364.11 378.74,-1304.11 67.74,-1304.11"/>
<polygon fill="none" stroke="#29235c" points="67.74,-1304.11 67.74,-1364.11 378.74,-1364.11 378.74,-1304.11 67.74,-1304.11"/>
<text text-anchor="start" x="78.74" y="-1324.31" font-family="Helvetica,sans-Serif" font-size="32.00" fill="#29235c">film_id &#160;&#160;&#160;</text>
<text text-anchor="start" x="252.19" y="-1325.31" font-family="Helvetica,sans-Serif" font-style="italic" font-size="32.00" fill="#29235c">bigint</text>
<text text-anchor="start" x="328.65" y="-1325.31" font-family="Helvetica,sans-Serif" font-size="32.00" fill="#29235c"> </text>
<text text-anchor="start" x="337.54" y="-1325.31" font-family="Helvetica,sans-Serif" font-weight="bold" font-size="32.00" fill="#29235c">(!)</text>
<polygon fill="none" stroke="#29235c" stroke-width="2" points="66.24,-1303.11 66.24,-1545.11 379.24,-1545.11 379.24,-1303.11 66.24,-1303.11"/>
</g>
<!-- film_genres&#45;&gt;ref_genre -->
<!-- film_genres&#45;&gt;ref_genre -->
<g id="edge4" class="edge">
<title>film_genres:e&#45;&gt;ref_genre:w</title>
<path fill="none" stroke="#29235c" stroke-width="3" d="M379.74,-1394.11C518.87,-1394.11 513.31,-1550.2 645.38,-1557.82"/>
<polygon fill="#29235c" stroke="#29235c" stroke-width="3" points="645.46,-1561.32 655.55,-1558.11 645.66,-1554.33 645.46,-1561.32"/>
<text text-anchor="middle" x="646.66" y="-1567.71" font-family="Helvetica,sans-Serif" font-size="32.00" fill="#29235c">1</text>
<text text-anchor="middle" x="385.96" y="-1403.71" font-family="Helvetica,sans-Serif" font-size="32.00" fill="#29235c">*</text>
</g>
<!-- film_genres&#45;&gt;films -->
<!-- film_genres&#45;&gt;films -->
<g id="edge6" class="edge">
<title>film_genres:e&#45;&gt;films:w</title>
<path fill="none" stroke="#29235c" stroke-width="3" d="M379.74,-1334.11C484.72,-1334.11 491.72,-1236.7 590.39,-1230.42"/>
<polygon fill="#29235c" stroke="#29235c" stroke-width="3" points="590.67,-1233.92 600.55,-1230.11 590.45,-1226.92 590.67,-1233.92"/>
<text text-anchor="middle" x="591.66" y="-1239.71" font-family="Helvetica,sans-Serif" font-size="32.00" fill="#29235c">1</text>
<text text-anchor="middle" x="385.96" y="-1343.71" font-family="Helvetica,sans-Serif" font-size="32.00" fill="#29235c">*</text>
</g>
<!-- friendships -->
<g id="friendships" class="node">
<title>friendships</title>
<ellipse fill="none" stroke="black" stroke-width="0" cx="222.74" cy="-595.11" rx="215.84" ry="172.57"/>
<polygon fill="#1d71b8" stroke="transparent" points="72.74,-655.11 72.74,-715.11 373.74,-715.11 373.74,-655.11 72.74,-655.11"/>
<polygon fill="none" stroke="#29235c" points="72.74,-655.11 72.74,-715.11 373.74,-715.11 373.74,-655.11 72.74,-655.11"/>
<text text-anchor="start" x="83.64" y="-676.31" font-family="Helvetica,sans-Serif" font-weight="bold" font-size="32.00" fill="#ffffff"> &#160;&#160;&#160;&#160;&#160;&#160;friendships &#160;&#160;&#160;&#160;&#160;&#160;</text>
<polygon fill="#e7e2dd" stroke="transparent" points="72.74,-595.11 72.74,-655.11 373.74,-655.11 373.74,-595.11 72.74,-595.11"/>
<polygon fill="none" stroke="#29235c" points="72.74,-595.11 72.74,-655.11 373.74,-655.11 373.74,-595.11 72.74,-595.11"/>
<text text-anchor="start" x="83.74" y="-615.31" font-family="Helvetica,sans-Serif" font-size="32.00" fill="#29235c">user_id &#160;&#160;&#160;</text>
<text text-anchor="start" x="247.19" y="-616.31" font-family="Helvetica,sans-Serif" font-style="italic" font-size="32.00" fill="#29235c">bigint</text>
<text text-anchor="start" x="323.65" y="-616.31" font-family="Helvetica,sans-Serif" font-size="32.00" fill="#29235c"> </text>
<text text-anchor="start" x="332.54" y="-616.31" font-family="Helvetica,sans-Serif" font-weight="bold" font-size="32.00" fill="#29235c">(!)</text>
<polygon fill="#e7e2dd" stroke="transparent" points="72.74,-535.11 72.74,-595.11 373.74,-595.11 373.74,-535.11 72.74,-535.11"/>
<polygon fill="none" stroke="#29235c" points="72.74,-535.11 72.74,-595.11 373.74,-595.11 373.74,-535.11 72.74,-535.11"/>
<text text-anchor="start" x="83.74" y="-555.31" font-family="Helvetica,sans-Serif" font-size="32.00" fill="#29235c">friend_id &#160;&#160;&#160;</text>
<text text-anchor="start" x="247.19" y="-556.31" font-family="Helvetica,sans-Serif" font-style="italic" font-size="32.00" fill="#29235c">bigint</text>
<text text-anchor="start" x="323.65" y="-556.31" font-family="Helvetica,sans-Serif" font-size="32.00" fill="#29235c"> </text>
<text text-anchor="start" x="332.54" y="-556.31" font-family="Helvetica,sans-Serif" font-weight="bold" font-size="32.00" fill="#29235c">(!)</text>
<polygon fill="#e7e2dd" stroke="transparent" points="72.74,-475.11 72.74,-535.11 373.74,-535.11 373.74,-475.11 72.74,-475.11"/>
<polygon fill="none" stroke="#29235c" points="72.74,-475.11 72.74,-535.11 373.74,-535.11 373.74,-475.11 72.74,-475.11"/>
<text text-anchor="start" x="83.74" y="-495.31" font-family="Helvetica,sans-Serif" font-size="32.00" fill="#29235c">status_id &#160;&#160;&#160;</text>
<text text-anchor="start" x="247.46" y="-496.31" font-family="Helvetica,sans-Serif" font-style="italic" font-size="32.00" fill="#29235c">bigint</text>
<text text-anchor="start" x="323.92" y="-496.31" font-family="Helvetica,sans-Serif" font-size="32.00" fill="#29235c"> </text>
<text text-anchor="start" x="332.82" y="-496.31" font-family="Helvetica,sans-Serif" font-weight="bold" font-size="32.00" fill="#29235c">(!)</text>
<polygon fill="none" stroke="#29235c" stroke-width="2" points="71.24,-474.11 71.24,-716.11 374.24,-716.11 374.24,-474.11 71.24,-474.11"/>
</g>
<!-- friendships&#45;&gt;ref_friendship_status -->
<!-- friendships&#45;&gt;ref_friendship_status -->
<g id="edge12" class="edge">
<title>friendships:e&#45;&gt;ref_friendship_status:w</title>
<path fill="none" stroke="#29235c" stroke-width="3" d="M374.74,-505.11C560.29,-505.11 392.95,-143.89 565.4,-130.49"/>
<polygon fill="#29235c" stroke="#29235c" stroke-width="3" points="565.69,-133.98 575.55,-130.11 565.43,-126.99 565.69,-133.98"/>
<text text-anchor="middle" x="566.66" y="-101.31" font-family="Helvetica,sans-Serif" font-size="32.00" fill="#29235c">1</text>
<text text-anchor="middle" x="380.96" y="-476.31" font-family="Helvetica,sans-Serif" font-size="32.00" fill="#29235c">*</text>
</g>
<!-- friendships&#45;&gt;users -->
<!-- friendships&#45;&gt;users -->
<g id="edge8" class="edge">
<title>friendships:e&#45;&gt;users:w</title>
<path fill="none" stroke="#29235c" stroke-width="3" d="M374.74,-625.11C497,-625.11 530.07,-625.11 647.45,-625.11"/>
<polygon fill="#29235c" stroke="#29235c" stroke-width="3" points="647.55,-628.61 657.55,-625.11 647.55,-621.61 647.55,-628.61"/>
<text text-anchor="middle" x="648.66" y="-634.71" font-family="Helvetica,sans-Serif" font-size="32.00" fill="#29235c">1</text>
<text text-anchor="middle" x="380.96" y="-634.71" font-family="Helvetica,sans-Serif" font-size="32.00" fill="#29235c">*</text>
</g>
<!-- friendships&#45;&gt;users -->
<!-- friendships&#45;&gt;users -->
<g id="edge10" class="edge">
<title>friendships:e&#45;&gt;users:w</title>
<path fill="none" stroke="#29235c" stroke-width="3" d="M374.74,-565.11C499.72,-565.11 527.57,-621.87 647.24,-624.98"/>
<polygon fill="#29235c" stroke="#29235c" stroke-width="3" points="647.51,-628.48 657.55,-625.11 647.6,-621.48 647.51,-628.48"/>
<text text-anchor="middle" x="648.66" y="-596.31" font-family="Helvetica,sans-Serif" font-size="32.00" fill="#29235c">1</text>
<text text-anchor="middle" x="380.96" y="-536.31" font-family="Helvetica,sans-Serif" font-size="32.00" fill="#29235c">*</text>
</g>
<!-- film_likes -->
<g id="film_likes" class="node">
<title>film_likes</title>
<ellipse fill="none" stroke="black" stroke-width="0" cx="222.74" cy="-1062.11" rx="199.31" ry="130.22"/>
<polygon fill="#1d71b8" stroke="transparent" points="83.74,-1092.11 83.74,-1152.11 361.74,-1152.11 361.74,-1092.11 83.74,-1092.11"/>
<polygon fill="none" stroke="#29235c" points="83.74,-1092.11 83.74,-1152.11 361.74,-1152.11 361.74,-1092.11 83.74,-1092.11"/>
<text text-anchor="start" x="94.73" y="-1113.31" font-family="Helvetica,sans-Serif" font-weight="bold" font-size="32.00" fill="#ffffff"> &#160;&#160;&#160;&#160;&#160;&#160;film_likes &#160;&#160;&#160;&#160;&#160;&#160;</text>
<polygon fill="#e7e2dd" stroke="transparent" points="83.74,-1032.11 83.74,-1092.11 361.74,-1092.11 361.74,-1032.11 83.74,-1032.11"/>
<polygon fill="none" stroke="#29235c" points="83.74,-1032.11 83.74,-1092.11 361.74,-1092.11 361.74,-1032.11 83.74,-1032.11"/>
<text text-anchor="start" x="94.74" y="-1052.31" font-family="Helvetica,sans-Serif" font-size="32.00" fill="#29235c">film_id &#160;&#160;&#160;</text>
<text text-anchor="start" x="235.19" y="-1053.31" font-family="Helvetica,sans-Serif" font-style="italic" font-size="32.00" fill="#29235c">bigint</text>
<text text-anchor="start" x="311.65" y="-1053.31" font-family="Helvetica,sans-Serif" font-size="32.00" fill="#29235c"> </text>
<text text-anchor="start" x="320.54" y="-1053.31" font-family="Helvetica,sans-Serif" font-weight="bold" font-size="32.00" fill="#29235c">(!)</text>
<polygon fill="#e7e2dd" stroke="transparent" points="83.74,-972.11 83.74,-1032.11 361.74,-1032.11 361.74,-972.11 83.74,-972.11"/>
<polygon fill="none" stroke="#29235c" points="83.74,-972.11 83.74,-1032.11 361.74,-1032.11 361.74,-972.11 83.74,-972.11"/>
<text text-anchor="start" x="94.74" y="-992.31" font-family="Helvetica,sans-Serif" font-size="32.00" fill="#29235c">user_id &#160;&#160;&#160;</text>
<text text-anchor="start" x="235.46" y="-993.31" font-family="Helvetica,sans-Serif" font-style="italic" font-size="32.00" fill="#29235c">bigint</text>
<text text-anchor="start" x="311.92" y="-993.31" font-family="Helvetica,sans-Serif" font-size="32.00" fill="#29235c"> </text>
<text text-anchor="start" x="320.82" y="-993.31" font-family="Helvetica,sans-Serif" font-weight="bold" font-size="32.00" fill="#29235c">(!)</text>
<polygon fill="none" stroke="#29235c" stroke-width="2" points="82.74,-971.11 82.74,-1153.11 362.74,-1153.11 362.74,-971.11 82.74,-971.11"/>
</g>
<!-- film_likes&#45;&gt;users -->
<!-- film_likes&#45;&gt;users -->
<g id="edge16" class="edge">
<title>film_likes:e&#45;&gt;users:w</title>
<path fill="none" stroke="#29235c" stroke-width="3" d="M362.74,-1002.11C466.5,-1002.11 417.9,-883.1 481.48,-801.11 547.16,-716.4 546.99,-630.64 647.51,-625.36"/>
<polygon fill="#29235c" stroke="#29235c" stroke-width="3" points="647.65,-628.86 657.55,-625.11 647.47,-621.86 647.65,-628.86"/>
<text text-anchor="middle" x="666.45" y="-634.71" font-family="Helvetica,sans-Serif" font-size="32.00" fill="#29235c">1</text>
<text text-anchor="middle" x="368.96" y="-1011.71" font-family="Helvetica,sans-Serif" font-size="32.00" fill="#29235c">*</text>
</g>
<!-- film_likes&#45;&gt;films -->
<!-- film_likes&#45;&gt;films -->
<g id="edge14" class="edge">
<title>film_likes:e&#45;&gt;films:w</title>
<path fill="none" stroke="#29235c" stroke-width="3" d="M362.74,-1062.11C488.61,-1062.11 472.18,-1221.05 590.27,-1229.74"/>
<polygon fill="#29235c" stroke="#29235c" stroke-width="3" points="590.43,-1233.25 600.55,-1230.11 590.69,-1226.25 590.43,-1233.25"/>
<text text-anchor="middle" x="591.66" y="-1201.31" font-family="Helvetica,sans-Serif" font-size="32.00" fill="#29235c">1</text>
<text text-anchor="middle" x="368.96" y="-1071.71" font-family="Helvetica,sans-Serif" font-size="32.00" fill="#29235c">*</text>
</g>
</g>
</svg>
