<?xml version="1.0" encoding="UTF-8" standalone="no"?>
<!DOCTYPE svg PUBLIC "-//W3C//DTD SVG 1.1//EN"
 "http://www.w3.org/Graphics/SVG/1.1/DTD/svg11.dtd">
<!-- Generated by graphviz version 2.47.0 (20210316.0004)
 -->
<!-- Title: dbml Pages: 1 -->
<svg width="1490pt" height="1418pt"
 viewBox="0.00 0.00 1489.97 1418.49" xmlns="http://www.w3.org/2000/svg" xmlns:xlink="http://www.w3.org/1999/xlink">
<g id="graph0" class="graph" transform="scale(1 1) rotate(0) translate(4 1414.49)">
<title>dbml</title>
<!-- ref_rating -->
<g id="ref_rating" class="node">
<title>ref_rating</title>
<ellipse fill="none" stroke="black" stroke-width="0" cx="1280.45" cy="-952.39" rx="201.55" ry="130.22"/>
<polygon fill="#1d71b8" stroke="transparent" points="1140.45,-982.39 1140.45,-1042.39 1421.45,-1042.39 1421.45,-982.39 1140.45,-982.39"/>
<polygon fill="none" stroke="#29235c" points="1140.45,-982.39 1140.45,-1042.39 1421.45,-1042.39 1421.45,-982.39 1140.45,-982.39"/>
<text text-anchor="start" x="1151.13" y="-1003.59" font-family="Helvetica,sans-Serif" font-weight="bold" font-size="32.00" fill="#ffffff"> &#160;&#160;&#160;&#160;&#160;&#160;ref_rating &#160;&#160;&#160;&#160;&#160;&#160;</text>
<polygon fill="#e7e2dd" stroke="transparent" points="1140.45,-922.39 1140.45,-982.39 1421.45,-982.39 1421.45,-922.39 1140.45,-922.39"/>
<polygon fill="none" stroke="#29235c" points="1140.45,-922.39 1140.45,-982.39 1421.45,-982.39 1421.45,-922.39 1140.45,-922.39"/>
<text text-anchor="start" x="1151.45" y="-943.59" font-family="Helvetica,sans-Serif" font-weight="bold" font-size="32.00" fill="#29235c">id</text>
<text text-anchor="start" x="1176.34" y="-943.59" font-family="Helvetica,sans-Serif" font-size="32.00" fill="#29235c"> &#160;&#160;&#160;</text>
<text text-anchor="start" x="1333.98" y="-943.59" font-family="Helvetica,sans-Serif" font-style="italic" font-size="32.00" fill="#29235c">bigint</text>
<polygon fill="#e7e2dd" stroke="transparent" points="1140.45,-862.39 1140.45,-922.39 1421.45,-922.39 1421.45,-862.39 1140.45,-862.39"/>
<polygon fill="none" stroke="#29235c" points="1140.45,-862.39 1140.45,-922.39 1421.45,-922.39 1421.45,-862.39 1140.45,-862.39"/>
<text text-anchor="start" x="1151.45" y="-882.59" font-family="Helvetica,sans-Serif" font-size="32.00" fill="#29235c">code &#160;&#160;&#160;</text>
<text text-anchor="start" x="1264.68" y="-883.59" font-family="Helvetica,sans-Serif" font-style="italic" font-size="32.00" fill="#29235c">varchar</text>
<text text-anchor="start" x="1371.35" y="-883.59" font-family="Helvetica,sans-Serif" font-size="32.00" fill="#29235c"> </text>
<text text-anchor="start" x="1380.25" y="-883.59" font-family="Helvetica,sans-Serif" font-weight="bold" font-size="32.00" fill="#29235c">(!)</text>
<polygon fill="none" stroke="#29235c" stroke-width="2" points="1138.95,-861.39 1138.95,-1043.39 1421.95,-1043.39 1421.95,-861.39 1138.95,-861.39"/>
</g>
<!-- ref_genre -->
<g id="ref_genre" class="node">
<title>ref_genre</title>
<ellipse fill="none" stroke="black" stroke-width="0" cx="762.2" cy="-1280.39" rx="202.88" ry="130.22"/>
<polygon fill="#1d71b8" stroke="transparent" points="621.2,-1310.39 621.2,-1370.39 904.2,-1370.39 904.2,-1310.39 621.2,-1310.39"/>
<polygon fill="none" stroke="#29235c" points="621.2,-1310.39 621.2,-1370.39 904.2,-1370.39 904.2,-1310.39 621.2,-1310.39"/>
<text text-anchor="start" x="631.98" y="-1331.59" font-family="Helvetica,sans-Serif" font-weight="bold" font-size="32.00" fill="#ffffff"> &#160;&#160;&#160;&#160;&#160;&#160;ref_genre &#160;&#160;&#160;&#160;&#160;&#160;</text>
<polygon fill="#e7e2dd" stroke="transparent" points="621.2,-1250.39 621.2,-1310.39 904.2,-1310.39 904.2,-1250.39 621.2,-1250.39"/>
<polygon fill="none" stroke="#29235c" points="621.2,-1250.39 621.2,-1310.39 904.2,-1310.39 904.2,-1250.39 621.2,-1250.39"/>
<text text-anchor="start" x="632.2" y="-1271.59" font-family="Helvetica,sans-Serif" font-weight="bold" font-size="32.00" fill="#29235c">id</text>
<text text-anchor="start" x="657.09" y="-1271.59" font-family="Helvetica,sans-Serif" font-size="32.00" fill="#29235c"> &#160;&#160;&#160;</text>
<text text-anchor="start" x="816.74" y="-1271.59" font-family="Helvetica,sans-Serif" font-style="italic" font-size="32.00" fill="#29235c">bigint</text>
<polygon fill="#e7e2dd" stroke="transparent" points="621.2,-1190.39 621.2,-1250.39 904.2,-1250.39 904.2,-1190.39 621.2,-1190.39"/>
<polygon fill="none" stroke="#29235c" points="621.2,-1190.39 621.2,-1250.39 904.2,-1250.39 904.2,-1190.39 621.2,-1190.39"/>
<text text-anchor="start" x="632.2" y="-1210.59" font-family="Helvetica,sans-Serif" font-size="32.00" fill="#29235c">name &#160;&#160;&#160;</text>
<text text-anchor="start" x="747.82" y="-1211.59" font-family="Helvetica,sans-Serif" font-style="italic" font-size="32.00" fill="#29235c">varchar</text>
<text text-anchor="start" x="854.49" y="-1211.59" font-family="Helvetica,sans-Serif" font-size="32.00" fill="#29235c"> </text>
<text text-anchor="start" x="863.38" y="-1211.59" font-family="Helvetica,sans-Serif" font-weight="bold" font-size="32.00" fill="#29235c">(!)</text>
<polygon fill="none" stroke="#29235c" stroke-width="2" points="619.7,-1189.39 619.7,-1371.39 904.7,-1371.39 904.7,-1189.39 619.7,-1189.39"/>
</g>
<!-- users -->
<g id="users" class="node">
<title>users</title>
<ellipse fill="none" stroke="black" stroke-width="0" cx="762.2" cy="-257.39" rx="200.22" ry="257.27"/>
<polygon fill="#1d71b8" stroke="transparent" points="623.2,-377.39 623.2,-437.39 902.2,-437.39 902.2,-377.39 623.2,-377.39"/>
<polygon fill="none" stroke="#29235c" points="623.2,-377.39 623.2,-437.39 902.2,-437.39 902.2,-377.39 623.2,-377.39"/>
<text text-anchor="start" x="661.33" y="-398.59" font-family="Helvetica,sans-Serif" font-weight="bold" font-size="32.00" fill="#ffffff"> &#160;&#160;&#160;&#160;&#160;&#160;users &#160;&#160;&#160;&#160;&#160;&#160;</text>
<polygon fill="#e7e2dd" stroke="transparent" points="623.2,-317.39 623.2,-377.39 902.2,-377.39 902.2,-317.39 623.2,-317.39"/>
<polygon fill="none" stroke="#29235c" points="623.2,-317.39 623.2,-377.39 902.2,-377.39 902.2,-317.39 623.2,-317.39"/>
<text text-anchor="start" x="634.2" y="-338.59" font-family="Helvetica,sans-Serif" font-weight="bold" font-size="32.00" fill="#29235c">id</text>
<text text-anchor="start" x="659.09" y="-338.59" font-family="Helvetica,sans-Serif" font-size="32.00" fill="#29235c"> &#160;&#160;&#160;</text>
<text text-anchor="start" x="814.74" y="-338.59" font-family="Helvetica,sans-Serif" font-style="italic" font-size="32.00" fill="#29235c">bigint</text>
<polygon fill="#e7e2dd" stroke="transparent" points="623.2,-257.39 623.2,-317.39 902.2,-317.39 902.2,-257.39 623.2,-257.39"/>
<polygon fill="none" stroke="#29235c" points="623.2,-257.39 623.2,-317.39 902.2,-317.39 902.2,-257.39 623.2,-257.39"/>
<text text-anchor="start" x="634.2" y="-277.59" font-family="Helvetica,sans-Serif" font-size="32.00" fill="#29235c">login &#160;&#160;&#160;</text>
<text text-anchor="start" x="745.44" y="-278.59" font-family="Helvetica,sans-Serif" font-style="italic" font-size="32.00" fill="#29235c">varchar</text>
<text text-anchor="start" x="852.11" y="-278.59" font-family="Helvetica,sans-Serif" font-size="32.00" fill="#29235c"> </text>
<text text-anchor="start" x="861" y="-278.59" font-family="Helvetica,sans-Serif" font-weight="bold" font-size="32.00" fill="#29235c">(!)</text>
<polygon fill="#e7e2dd" stroke="transparent" points="623.2,-197.39 623.2,-257.39 902.2,-257.39 902.2,-197.39 623.2,-197.39"/>
<polygon fill="none" stroke="#29235c" points="623.2,-197.39 623.2,-257.39 902.2,-257.39 902.2,-197.39 623.2,-197.39"/>
<text text-anchor="start" x="634.2" y="-217.59" font-family="Helvetica,sans-Serif" font-size="32.00" fill="#29235c">email &#160;&#160;&#160;</text>
<text text-anchor="start" x="745.82" y="-218.59" font-family="Helvetica,sans-Serif" font-style="italic" font-size="32.00" fill="#29235c">varchar</text>
<text text-anchor="start" x="852.49" y="-218.59" font-family="Helvetica,sans-Serif" font-size="32.00" fill="#29235c"> </text>
<text text-anchor="start" x="861.38" y="-218.59" font-family="Helvetica,sans-Serif" font-weight="bold" font-size="32.00" fill="#29235c">(!)</text>
<polygon fill="#e7e2dd" stroke="transparent" points="623.2,-137.39 623.2,-197.39 902.2,-197.39 902.2,-137.39 623.2,-137.39"/>
<polygon fill="none" stroke="#29235c" points="623.2,-137.39 623.2,-197.39 902.2,-197.39 902.2,-137.39 623.2,-137.39"/>
<text text-anchor="start" x="634.2" y="-157.59" font-family="Helvetica,sans-Serif" font-size="32.00" fill="#29235c">name &#160;&#160;&#160;</text>
<text text-anchor="start" x="784.53" y="-158.59" font-family="Helvetica,sans-Serif" font-style="italic" font-size="32.00" fill="#29235c">varchar</text>
<polygon fill="#e7e2dd" stroke="transparent" points="623.2,-77.39 623.2,-137.39 902.2,-137.39 902.2,-77.39 623.2,-77.39"/>
<polygon fill="none" stroke="#29235c" points="623.2,-77.39 623.2,-137.39 902.2,-137.39 902.2,-77.39 623.2,-77.39"/>
<text text-anchor="start" x="634.2" y="-97.59" font-family="Helvetica,sans-Serif" font-size="32.00" fill="#29235c">birthday &#160;&#160;&#160;</text>
<text text-anchor="start" x="828.94" y="-98.59" font-family="Helvetica,sans-Serif" font-style="italic" font-size="32.00" fill="#29235c">date</text>
<polygon fill="none" stroke="#29235c" stroke-width="2" points="621.7,-76.39 621.7,-438.39 902.7,-438.39 902.7,-76.39 621.7,-76.39"/>
</g>
<!-- films -->
<g id="films" class="node">
<title>films</title>
<ellipse fill="none" stroke="black" stroke-width="0" cx="762.2" cy="-832.39" rx="280.94" ry="299.63"/>
<polygon fill="#1d71b8" stroke="transparent" points="566.2,-982.39 566.2,-1042.39 959.2,-1042.39 959.2,-982.39 566.2,-982.39"/>
<polygon fill="none" stroke="#29235c" points="566.2,-982.39 566.2,-1042.39 959.2,-1042.39 959.2,-982.39 566.2,-982.39"/>
<text text-anchor="start" x="667.58" y="-1003.59" font-family="Helvetica,sans-Serif" font-weight="bold" font-size="32.00" fill="#ffffff"> &#160;&#160;&#160;&#160;&#160;&#160;films &#160;&#160;&#160;&#160;&#160;&#160;</text>
<polygon fill="#e7e2dd" stroke="transparent" points="566.2,-922.39 566.2,-982.39 959.2,-982.39 959.2,-922.39 566.2,-922.39"/>
<polygon fill="none" stroke="#29235c" points="566.2,-922.39 566.2,-982.39 959.2,-982.39 959.2,-922.39 566.2,-922.39"/>
<text text-anchor="start" x="577.2" y="-943.59" font-family="Helvetica,sans-Serif" font-weight="bold" font-size="32.00" fill="#29235c">id</text>
<text text-anchor="start" x="602.09" y="-943.59" font-family="Helvetica,sans-Serif" font-size="32.00" fill="#29235c"> &#160;&#160;&#160;</text>
<text text-anchor="start" x="871.74" y="-943.59" font-family="Helvetica,sans-Serif" font-style="italic" font-size="32.00" fill="#29235c">bigint</text>
<polygon fill="#e7e2dd" stroke="transparent" points="566.2,-862.39 566.2,-922.39 959.2,-922.39 959.2,-862.39 566.2,-862.39"/>
<polygon fill="none" stroke="#29235c" points="566.2,-862.39 566.2,-922.39 959.2,-922.39 959.2,-862.39 566.2,-862.39"/>
<text text-anchor="start" x="577.2" y="-882.59" font-family="Helvetica,sans-Serif" font-size="32.00" fill="#29235c">name &#160;&#160;&#160;</text>
<text text-anchor="start" x="802.44" y="-883.59" font-family="Helvetica,sans-Serif" font-style="italic" font-size="32.00" fill="#29235c">varchar</text>
<text text-anchor="start" x="909.11" y="-883.59" font-family="Helvetica,sans-Serif" font-size="32.00" fill="#29235c"> </text>
<text text-anchor="start" x="918" y="-883.59" font-family="Helvetica,sans-Serif" font-weight="bold" font-size="32.00" fill="#29235c">(!)</text>
<polygon fill="#e7e2dd" stroke="transparent" points="566.2,-802.39 566.2,-862.39 959.2,-862.39 959.2,-802.39 566.2,-802.39"/>
<polygon fill="none" stroke="#29235c" points="566.2,-802.39 566.2,-862.39 959.2,-862.39 959.2,-802.39 566.2,-802.39"/>
<text text-anchor="start" x="577.07" y="-822.59" font-family="Helvetica,sans-Serif" font-size="32.00" fill="#29235c">description &#160;&#160;&#160;</text>
<text text-anchor="start" x="767.03" y="-823.59" font-family="Helvetica,sans-Serif" font-style="italic" font-size="32.00" fill="#29235c">varchar(200)</text>
<polygon fill="#e7e2dd" stroke="transparent" points="566.2,-742.39 566.2,-802.39 959.2,-802.39 959.2,-742.39 566.2,-742.39"/>
<polygon fill="none" stroke="#29235c" points="566.2,-742.39 566.2,-802.39 959.2,-802.39 959.2,-742.39 566.2,-742.39"/>
<text text-anchor="start" x="577.2" y="-762.59" font-family="Helvetica,sans-Serif" font-size="32.00" fill="#29235c">release_date &#160;&#160;&#160;</text>
<text text-anchor="start" x="885.94" y="-763.59" font-family="Helvetica,sans-Serif" font-style="italic" font-size="32.00" fill="#29235c">date</text>
<polygon fill="#e7e2dd" stroke="transparent" points="566.2,-682.39 566.2,-742.39 959.2,-742.39 959.2,-682.39 566.2,-682.39"/>
<polygon fill="none" stroke="#29235c" points="566.2,-682.39 566.2,-742.39 959.2,-742.39 959.2,-682.39 566.2,-682.39"/>
<text text-anchor="start" x="577.2" y="-702.59" font-family="Helvetica,sans-Serif" font-size="32.00" fill="#29235c">duration &#160;&#160;&#160;</text>
<text text-anchor="start" x="914.42" y="-703.59" font-family="Helvetica,sans-Serif" font-style="italic" font-size="32.00" fill="#29235c">int</text>
<polygon fill="#e7e2dd" stroke="transparent" points="566.2,-622.39 566.2,-682.39 959.2,-682.39 959.2,-622.39 566.2,-622.39"/>
<polygon fill="none" stroke="#29235c" points="566.2,-622.39 566.2,-682.39 959.2,-682.39 959.2,-622.39 566.2,-622.39"/>
<text text-anchor="start" x="577.2" y="-642.59" font-family="Helvetica,sans-Serif" font-size="32.00" fill="#29235c">rating_id &#160;&#160;&#160;</text>
<text text-anchor="start" x="832.65" y="-643.59" font-family="Helvetica,sans-Serif" font-style="italic" font-size="32.00" fill="#29235c">bigint</text>
<text text-anchor="start" x="909.11" y="-643.59" font-family="Helvetica,sans-Serif" font-size="32.00" fill="#29235c"> </text>
<text text-anchor="start" x="918" y="-643.59" font-family="Helvetica,sans-Serif" font-weight="bold" font-size="32.00" fill="#29235c">(!)</text>
<polygon fill="none" stroke="#29235c" stroke-width="2" points="564.7,-621.39 564.7,-1043.39 959.7,-1043.39 959.7,-621.39 564.7,-621.39"/>
</g>
<!-- films&#45;&gt;ref_rating -->
<!-- films&#45;&gt;ref_rating -->
<g id="edge2" class="edge">
<title>films:e&#45;&gt;ref_rating:w</title>
<path fill="none" stroke="#29235c" stroke-width="3" d="M960.2,-652.39C1112.03,-652.39 989.88,-939.06 1129.41,-951.94"/>
<polygon fill="#29235c" stroke="#29235c" stroke-width="3" points="1129.3,-955.44 1139.45,-952.39 1129.61,-948.45 1129.3,-955.44"/>
<text text-anchor="middle" x="1130.55" y="-961.99" font-family="Helvetica,sans-Serif" font-size="32.00" fill="#29235c">1</text>
<text text-anchor="middle" x="966.42" y="-661.99" font-family="Helvetica,sans-Serif" font-size="32.00" fill="#29235c">*</text>
</g>
<!-- film_genres -->
<g id="film_genres" class="node">
<title>film_genres</title>
<ellipse fill="none" stroke="black" stroke-width="0" cx="222.74" cy="-1146.39" rx="222.98" ry="172.57"/>
<polygon fill="#1d71b8" stroke="transparent" points="67.74,-1206.39 67.74,-1266.39 378.74,-1266.39 378.74,-1206.39 67.74,-1206.39"/>
<polygon fill="none" stroke="#29235c" points="67.74,-1206.39 67.74,-1266.39 378.74,-1266.39 378.74,-1206.39 67.74,-1206.39"/>
<text text-anchor="start" x="78.32" y="-1227.59" font-family="Helvetica,sans-Serif" font-weight="bold" font-size="32.00" fill="#ffffff"> &#160;&#160;&#160;&#160;&#160;&#160;film_genres &#160;&#160;&#160;&#160;&#160;&#160;</text>
<polygon fill="#e7e2dd" stroke="transparent" points="67.74,-1146.39 67.74,-1206.39 378.74,-1206.39 378.74,-1146.39 67.74,-1146.39"/>
<polygon fill="none" stroke="#29235c" points="67.74,-1146.39 67.74,-1206.39 378.74,-1206.39 378.74,-1146.39 67.74,-1146.39"/>
<text text-anchor="start" x="78.74" y="-1167.59" font-family="Helvetica,sans-Serif" font-weight="bold" font-size="32.00" fill="#29235c">id</text>
<text text-anchor="start" x="103.63" y="-1167.59" font-family="Helvetica,sans-Serif" font-size="32.00" fill="#29235c"> &#160;&#160;&#160;</text>
<text text-anchor="start" x="291.28" y="-1167.59" font-family="Helvetica,sans-Serif" font-style="italic" font-size="32.00" fill="#29235c">bigint</text>
<polygon fill="#e7e2dd" stroke="transparent" points="67.74,-1086.39 67.74,-1146.39 378.74,-1146.39 378.74,-1086.39 67.74,-1086.39"/>
<polygon fill="none" stroke="#29235c" points="67.74,-1086.39 67.74,-1146.39 378.74,-1146.39 378.74,-1086.39 67.74,-1086.39"/>
<text text-anchor="start" x="78.74" y="-1106.59" font-family="Helvetica,sans-Serif" font-size="32.00" fill="#29235c">genre_id &#160;&#160;&#160;</text>
<text text-anchor="start" x="252.19" y="-1107.59" font-family="Helvetica,sans-Serif" font-style="italic" font-size="32.00" fill="#29235c">bigint</text>
<text text-anchor="start" x="328.65" y="-1107.59" font-family="Helvetica,sans-Serif" font-size="32.00" fill="#29235c"> </text>
<text text-anchor="start" x="337.54" y="-1107.59" font-family="Helvetica,sans-Serif" font-weight="bold" font-size="32.00" fill="#29235c">(!)</text>
<polygon fill="#e7e2dd" stroke="transparent" points="67.74,-1026.39 67.74,-1086.39 378.74,-1086.39 378.74,-1026.39 67.74,-1026.39"/>
<polygon fill="none" stroke="#29235c" points="67.74,-1026.39 67.74,-1086.39 378.74,-1086.39 378.74,-1026.39 67.74,-1026.39"/>
<text text-anchor="start" x="78.74" y="-1046.59" font-family="Helvetica,sans-Serif" font-size="32.00" fill="#29235c">film_id &#160;&#160;&#160;</text>
<text text-anchor="start" x="252.19" y="-1047.59" font-family="Helvetica,sans-Serif" font-style="italic" font-size="32.00" fill="#29235c">bigint</text>
<text text-anchor="start" x="328.65" y="-1047.59" font-family="Helvetica,sans-Serif" font-size="32.00" fill="#29235c"> </text>
<text text-anchor="start" x="337.54" y="-1047.59" font-family="Helvetica,sans-Serif" font-weight="bold" font-size="32.00" fill="#29235c">(!)</text>
<polygon fill="none" stroke="#29235c" stroke-width="2" points="66.24,-1025.39 66.24,-1267.39 379.24,-1267.39 379.24,-1025.39 66.24,-1025.39"/>
</g>
<!-- film_genres&#45;&gt;ref_genre -->
<!-- film_genres&#45;&gt;ref_genre -->
<g id="edge4" class="edge">
<title>film_genres:e&#45;&gt;ref_genre:w</title>
<path fill="none" stroke="#29235c" stroke-width="3" d="M379.74,-1116.39C505.56,-1116.39 491.73,-1271.54 609.91,-1280.03"/>
<polygon fill="#29235c" stroke="#29235c" stroke-width="3" points="610.08,-1283.53 620.2,-1280.39 610.33,-1276.54 610.08,-1283.53"/>
<text text-anchor="middle" x="611.3" y="-1289.99" font-family="Helvetica,sans-Serif" font-size="32.00" fill="#29235c">1</text>
<text text-anchor="middle" x="373.52" y="-1125.99" font-family="Helvetica,sans-Serif" font-size="32.00" fill="#29235c">*</text>
</g>
<!-- film_genres&#45;&gt;films -->
<!-- film_genres&#45;&gt;films -->
<g id="edge6" class="edge">
<title>film_genres:e&#45;&gt;films:w</title>
<path fill="none" stroke="#29235c" stroke-width="3" d="M379.74,-1056.39C470.73,-1056.39 470.82,-959.96 555.07,-952.81"/>
<polygon fill="#29235c" stroke="#29235c" stroke-width="3" points="555.35,-956.3 565.2,-952.39 555.06,-949.3 555.35,-956.3"/>
<text text-anchor="middle" x="556.3" y="-961.99" font-family="Helvetica,sans-Serif" font-size="32.00" fill="#29235c">1</text>
<text text-anchor="middle" x="373.52" y="-1065.99" font-family="Helvetica,sans-Serif" font-size="32.00" fill="#29235c">*</text>
</g>
<!-- friendships -->
<g id="friendships" class="node">
<title>friendships</title>
<ellipse fill="none" stroke="black" stroke-width="0" cx="222.74" cy="-347.39" rx="215.84" ry="130.22"/>
<polygon fill="#1d71b8" stroke="transparent" points="72.74,-377.39 72.74,-437.39 373.74,-437.39 373.74,-377.39 72.74,-377.39"/>
<polygon fill="none" stroke="#29235c" points="72.74,-377.39 72.74,-437.39 373.74,-437.39 373.74,-377.39 72.74,-377.39"/>
<text text-anchor="start" x="83.64" y="-398.59" font-family="Helvetica,sans-Serif" font-weight="bold" font-size="32.00" fill="#ffffff"> &#160;&#160;&#160;&#160;&#160;&#160;friendships &#160;&#160;&#160;&#160;&#160;&#160;</text>
<polygon fill="#e7e2dd" stroke="transparent" points="72.74,-317.39 72.74,-377.39 373.74,-377.39 373.74,-317.39 72.74,-317.39"/>
<polygon fill="none" stroke="#29235c" points="72.74,-317.39 72.74,-377.39 373.74,-377.39 373.74,-317.39 72.74,-317.39"/>
<text text-anchor="start" x="83.74" y="-337.59" font-family="Helvetica,sans-Serif" font-size="32.00" fill="#29235c">user_id &#160;&#160;&#160;</text>
<text text-anchor="start" x="247.19" y="-338.59" font-family="Helvetica,sans-Serif" font-style="italic" font-size="32.00" fill="#29235c">bigint</text>
<text text-anchor="start" x="323.65" y="-338.59" font-family="Helvetica,sans-Serif" font-size="32.00" fill="#29235c"> </text>
<text text-anchor="start" x="332.54" y="-338.59" font-family="Helvetica,sans-Serif" font-weight="bold" font-size="32.00" fill="#29235c">(!)</text>
<polygon fill="#e7e2dd" stroke="transparent" points="72.74,-257.39 72.74,-317.39 373.74,-317.39 373.74,-257.39 72.74,-257.39"/>
<polygon fill="none" stroke="#29235c" points="72.74,-257.39 72.74,-317.39 373.74,-317.39 373.74,-257.39 72.74,-257.39"/>
<text text-anchor="start" x="83.74" y="-277.59" font-family="Helvetica,sans-Serif" font-size="32.00" fill="#29235c">friend_id &#160;&#160;&#160;</text>
<text text-anchor="start" x="247.19" y="-278.59" font-family="Helvetica,sans-Serif" font-style="italic" font-size="32.00" fill="#29235c">bigint</text>
<text text-anchor="start" x="323.65" y="-278.59" font-family="Helvetica,sans-Serif" font-size="32.00" fill="#29235c"> </text>
<text text-anchor="start" x="332.54" y="-278.59" font-family="Helvetica,sans-Serif" font-weight="bold" font-size="32.00" fill="#29235c">(!)</text>
<polygon fill="none" stroke="#29235c" stroke-width="2" points="71.24,-256.39 71.24,-438.39 374.24,-438.39 374.24,-256.39 71.24,-256.39"/>
</g>
<!-- friendships&#45;&gt;users -->
<!-- friendships&#45;&gt;users -->
<g id="edge8" class="edge">
<title>friendships:e&#45;&gt;users:w</title>
<path fill="none" stroke="#29235c" stroke-width="3" d="M374.74,-347.39C481.28,-347.39 510.42,-347.39 612.12,-347.39"/>
<polygon fill="#29235c" stroke="#29235c" stroke-width="3" points="612.2,-350.89 622.2,-347.39 612.2,-343.89 612.2,-350.89"/>
<text text-anchor="middle" x="613.3" y="-318.59" font-family="Helvetica,sans-Serif" font-size="32.00" fill="#29235c">1</text>
<text text-anchor="middle" x="368.52" y="-318.59" font-family="Helvetica,sans-Serif" font-size="32.00" fill="#29235c">*</text>
</g>
<!-- friendships&#45;&gt;users -->
<!-- friendships&#45;&gt;users -->
<g id="edge10" class="edge">
<title>friendships:e&#45;&gt;users:w</title>
<path fill="none" stroke="#29235c" stroke-width="3" d="M374.74,-287.39C484.48,-287.39 507.67,-343.81 612.17,-347.23"/>
<polygon fill="#29235c" stroke="#29235c" stroke-width="3" points="612.14,-350.73 622.2,-347.39 612.26,-343.73 612.14,-350.73"/>
<text text-anchor="middle" x="631.09" y="-318.59" font-family="Helvetica,sans-Serif" font-size="32.00" fill="#29235c">1</text>
<text text-anchor="middle" x="368.52" y="-258.59" font-family="Helvetica,sans-Serif" font-size="32.00" fill="#29235c">*</text>
</g>
<!-- film_likes -->
<g id="film_likes" class="node">
<title>film_likes</title>
<ellipse fill="none" stroke="black" stroke-width="0" cx="222.74" cy="-777.39" rx="199.31" ry="130.22"/>
<polygon fill="#1d71b8" stroke="transparent" points="83.74,-807.39 83.74,-867.39 361.74,-867.39 361.74,-807.39 83.74,-807.39"/>
<polygon fill="none" stroke="#29235c" points="83.74,-807.39 83.74,-867.39 361.74,-867.39 361.74,-807.39 83.74,-807.39"/>
<text text-anchor="start" x="94.73" y="-828.59" font-family="Helvetica,sans-Serif" font-weight="bold" font-size="32.00" fill="#ffffff"> &#160;&#160;&#160;&#160;&#160;&#160;film_likes &#160;&#160;&#160;&#160;&#160;&#160;</text>
<polygon fill="#e7e2dd" stroke="transparent" points="83.74,-747.39 83.74,-807.39 361.74,-807.39 361.74,-747.39 83.74,-747.39"/>
<polygon fill="none" stroke="#29235c" points="83.74,-747.39 83.74,-807.39 361.74,-807.39 361.74,-747.39 83.74,-747.39"/>
<text text-anchor="start" x="94.74" y="-767.59" font-family="Helvetica,sans-Serif" font-size="32.00" fill="#29235c">film_id &#160;&#160;&#160;</text>
<text text-anchor="start" x="235.19" y="-768.59" font-family="Helvetica,sans-Serif" font-style="italic" font-size="32.00" fill="#29235c">bigint</text>
<text text-anchor="start" x="311.65" y="-768.59" font-family="Helvetica,sans-Serif" font-size="32.00" fill="#29235c"> </text>
<text text-anchor="start" x="320.54" y="-768.59" font-family="Helvetica,sans-Serif" font-weight="bold" font-size="32.00" fill="#29235c">(!)</text>
<polygon fill="#e7e2dd" stroke="transparent" points="83.74,-687.39 83.74,-747.39 361.74,-747.39 361.74,-687.39 83.74,-687.39"/>
<polygon fill="none" stroke="#29235c" points="83.74,-687.39 83.74,-747.39 361.74,-747.39 361.74,-687.39 83.74,-687.39"/>
<text text-anchor="start" x="94.74" y="-707.59" font-family="Helvetica,sans-Serif" font-size="32.00" fill="#29235c">user_id &#160;&#160;&#160;</text>
<text text-anchor="start" x="235.46" y="-708.59" font-family="Helvetica,sans-Serif" font-style="italic" font-size="32.00" fill="#29235c">bigint</text>
<text text-anchor="start" x="311.92" y="-708.59" font-family="Helvetica,sans-Serif" font-size="32.00" fill="#29235c"> </text>
<text text-anchor="start" x="320.82" y="-708.59" font-family="Helvetica,sans-Serif" font-weight="bold" font-size="32.00" fill="#29235c">(!)</text>
<polygon fill="none" stroke="#29235c" stroke-width="2" points="82.74,-686.39 82.74,-868.39 362.74,-868.39 362.74,-686.39 82.74,-686.39"/>
</g>
<!-- film_likes&#45;&gt;users -->
<!-- film_likes&#45;&gt;users -->
<g id="edge14" class="edge">
<title>film_likes:e&#45;&gt;users:w</title>
<path fill="none" stroke="#29235c" stroke-width="3" d="M362.74,-717.39C463.83,-717.39 423.41,-606.14 481.48,-523.39 536.98,-444.29 523.15,-353.98 612.06,-347.73"/>
<polygon fill="#29235c" stroke="#29235c" stroke-width="3" points="612.32,-351.22 622.2,-347.39 612.09,-344.23 612.32,-351.22"/>
<text text-anchor="middle" x="613.3" y="-356.99" font-family="Helvetica,sans-Serif" font-size="32.00" fill="#29235c">1</text>
<text text-anchor="middle" x="356.52" y="-726.99" font-family="Helvetica,sans-Serif" font-size="32.00" fill="#29235c">*</text>
</g>
<!-- film_likes&#45;&gt;films -->
<!-- film_likes&#45;&gt;films -->
<g id="edge12" class="edge">
<title>film_likes:e&#45;&gt;films:w</title>
<path fill="none" stroke="#29235c" stroke-width="3" d="M362.74,-777.39C478.19,-777.39 448.2,-942.28 555.13,-951.95"/>
<polygon fill="#29235c" stroke="#29235c" stroke-width="3" points="555.05,-955.44 565.2,-952.39 555.36,-948.45 555.05,-955.44"/>
<text text-anchor="middle" x="574.09" y="-961.99" font-family="Helvetica,sans-Serif" font-size="32.00" fill="#29235c">1</text>
<text text-anchor="middle" x="356.52" y="-786.99" font-family="Helvetica,sans-Serif" font-size="32.00" fill="#29235c">*</text>
</g>
</g>
</svg>
